<mxfile host="app.diagrams.net" agent="Mozilla/5.0 (Windows NT 10.0; Win64; x64) AppleWebKit/537.36 (KHTML, like Gecko) Chrome/131.0.0.0 Safari/537.36" version="24.9.2">
  <diagram id="F0vFveEYV8_F9DEQTngs" name="Page-1">
    <mxGraphModel dx="1024" dy="560" grid="0" gridSize="10" guides="1" tooltips="1" connect="1" arrows="1" fold="1" page="0" pageScale="1" pageWidth="850" pageHeight="1100" math="0" shadow="0">
      <root>
        <mxCell id="0" />
        <mxCell id="1" parent="0" />
        <mxCell id="eOEueE1qG-VZVHATWFB1-10" value="" style="group" vertex="1" connectable="0" parent="1">
          <mxGeometry x="340" y="120" width="730" height="590" as="geometry" />
        </mxCell>
        <mxCell id="eOEueE1qG-VZVHATWFB1-43" value="" style="group" vertex="1" connectable="0" parent="eOEueE1qG-VZVHATWFB1-10">
          <mxGeometry x="120" width="330" height="292.34" as="geometry" />
        </mxCell>
        <mxCell id="eOEueE1qG-VZVHATWFB1-27" value="" style="rounded=1;whiteSpace=wrap;html=1;" vertex="1" parent="eOEueE1qG-VZVHATWFB1-43">
          <mxGeometry width="330" height="292.34" as="geometry" />
        </mxCell>
        <mxCell id="eOEueE1qG-VZVHATWFB1-1" value="" style="shape=image;verticalLabelPosition=bottom;labelBackgroundColor=default;verticalAlign=top;aspect=fixed;imageAspect=0;image=https://ausum.cloud/wp-content/uploads/2024/09/docker.png;" vertex="1" parent="eOEueE1qG-VZVHATWFB1-43">
          <mxGeometry x="183.33" y="9.75" width="124.9" height="70.25" as="geometry" />
        </mxCell>
        <mxCell id="eOEueE1qG-VZVHATWFB1-39" value="&lt;b&gt;&lt;font style=&quot;font-size: 14px;&quot;&gt;Contenedor de docker&lt;/font&gt;&lt;/b&gt;" style="text;html=1;align=center;verticalAlign=middle;whiteSpace=wrap;rounded=0;" vertex="1" parent="eOEueE1qG-VZVHATWFB1-43">
          <mxGeometry x="27.5" y="17.651015135135136" width="155.83333333333331" height="23.703243243243243" as="geometry" />
        </mxCell>
        <mxCell id="eOEueE1qG-VZVHATWFB1-47" value="" style="group" vertex="1" connectable="0" parent="eOEueE1qG-VZVHATWFB1-43">
          <mxGeometry x="18.333333333333332" y="170" width="146.66666666666666" height="110.62" as="geometry" />
        </mxCell>
        <mxCell id="eOEueE1qG-VZVHATWFB1-45" value="" style="rounded=1;whiteSpace=wrap;html=1;" vertex="1" parent="eOEueE1qG-VZVHATWFB1-47">
          <mxGeometry x="5.676862745098039" y="1.4211479710034032e-14" width="146.66666666666666" height="110.61999999999999" as="geometry" />
        </mxCell>
        <mxCell id="eOEueE1qG-VZVHATWFB1-11" value="" style="shape=image;verticalLabelPosition=bottom;labelBackgroundColor=default;verticalAlign=top;aspect=fixed;imageAspect=0;image=https://upload.wikimedia.org/wikipedia/commons/thumb/d/de/AirflowLogo.png/800px-AirflowLogo.png;" vertex="1" parent="eOEueE1qG-VZVHATWFB1-47">
          <mxGeometry x="25.230000000000004" y="34.54" width="107.56" height="41.54" as="geometry" />
        </mxCell>
        <mxCell id="eOEueE1qG-VZVHATWFB1-46" value="&lt;b&gt;Orquestador&lt;/b&gt;" style="text;html=1;align=center;verticalAlign=middle;whiteSpace=wrap;rounded=0;" vertex="1" parent="eOEueE1qG-VZVHATWFB1-47">
          <mxGeometry x="23.223634453781468" width="111.57142857142854" height="23.704285714285714" as="geometry" />
        </mxCell>
        <mxCell id="eOEueE1qG-VZVHATWFB1-48" value="" style="group" vertex="1" connectable="0" parent="eOEueE1qG-VZVHATWFB1-43">
          <mxGeometry x="183.33333333333331" y="94.69243243243243" width="128.33333333333334" height="110.61513513513513" as="geometry" />
        </mxCell>
        <mxCell id="eOEueE1qG-VZVHATWFB1-35" value="" style="rounded=1;whiteSpace=wrap;html=1;" vertex="1" parent="eOEueE1qG-VZVHATWFB1-48">
          <mxGeometry width="128.33333333333334" height="110.61513513513513" as="geometry" />
        </mxCell>
        <mxCell id="eOEueE1qG-VZVHATWFB1-13" value="" style="shape=image;verticalLabelPosition=bottom;labelBackgroundColor=default;verticalAlign=top;aspect=fixed;imageAspect=0;image=https://cdn.icon-icons.com/icons2/2415/PNG/512/postgresql_original_wordmark_logo_icon_146392.png;" vertex="1" parent="eOEueE1qG-VZVHATWFB1-48">
          <mxGeometry x="32.2" y="23.34" width="63.93" height="63.93" as="geometry" />
        </mxCell>
        <mxCell id="eOEueE1qG-VZVHATWFB1-38" value="&lt;b&gt;Data Warehouse&lt;/b&gt;" style="text;html=1;align=center;verticalAlign=middle;whiteSpace=wrap;rounded=0;" vertex="1" parent="eOEueE1qG-VZVHATWFB1-48">
          <mxGeometry x="15.354166666666668" width="97.62500000000001" height="23.703243243243243" as="geometry" />
        </mxCell>
        <mxCell id="eOEueE1qG-VZVHATWFB1-51" value="&lt;font style=&quot;font-size: 11px;&quot;&gt;&lt;b&gt;Almacenamiento&lt;/b&gt;&lt;/font&gt;" style="text;html=1;align=center;verticalAlign=middle;whiteSpace=wrap;rounded=0;" vertex="1" parent="eOEueE1qG-VZVHATWFB1-43">
          <mxGeometry x="40" y="100" width="100" height="30" as="geometry" />
        </mxCell>
        <mxCell id="eOEueE1qG-VZVHATWFB1-52" value="" style="group" vertex="1" connectable="0" parent="eOEueE1qG-VZVHATWFB1-10">
          <mxGeometry x="500" y="85.58000000000001" width="140" height="140" as="geometry" />
        </mxCell>
        <mxCell id="eOEueE1qG-VZVHATWFB1-53" value="" style="rounded=1;whiteSpace=wrap;html=1;" vertex="1" parent="eOEueE1qG-VZVHATWFB1-52">
          <mxGeometry width="140" height="140" as="geometry" />
        </mxCell>
        <mxCell id="eOEueE1qG-VZVHATWFB1-55" value="&lt;b&gt;Visualización&lt;/b&gt;" style="text;html=1;align=center;verticalAlign=middle;whiteSpace=wrap;rounded=0;" vertex="1" parent="eOEueE1qG-VZVHATWFB1-52">
          <mxGeometry x="40" width="60" height="30" as="geometry" />
        </mxCell>
        <mxCell id="eOEueE1qG-VZVHATWFB1-58" value="" style="shape=image;verticalLabelPosition=bottom;labelBackgroundColor=default;verticalAlign=top;aspect=fixed;imageAspect=0;image=https://media.datacamp.com/legacy/v1724169856/image_ff55d03003.png;" vertex="1" parent="eOEueE1qG-VZVHATWFB1-52">
          <mxGeometry x="24.32" y="25" width="91.35" height="90" as="geometry" />
        </mxCell>
        <mxCell id="eOEueE1qG-VZVHATWFB1-59" style="edgeStyle=orthogonalEdgeStyle;rounded=0;orthogonalLoop=1;jettySize=auto;html=1;exitX=1;exitY=0.5;exitDx=0;exitDy=0;" edge="1" parent="eOEueE1qG-VZVHATWFB1-10" source="eOEueE1qG-VZVHATWFB1-35" target="eOEueE1qG-VZVHATWFB1-53">
          <mxGeometry relative="1" as="geometry" />
        </mxCell>
        <mxCell id="eOEueE1qG-VZVHATWFB1-60" value="&lt;b&gt;Análisis&lt;/b&gt;" style="edgeLabel;html=1;align=center;verticalAlign=middle;resizable=0;points=[];" vertex="1" connectable="0" parent="eOEueE1qG-VZVHATWFB1-59">
          <mxGeometry x="-0.1488" relative="1" as="geometry">
            <mxPoint x="11" y="-10" as="offset" />
          </mxGeometry>
        </mxCell>
        <mxCell id="eOEueE1qG-VZVHATWFB1-7" value="" style="group;fontStyle=4" vertex="1" connectable="0" parent="1">
          <mxGeometry x="50" y="200" width="140.01" height="140" as="geometry" />
        </mxCell>
        <mxCell id="eOEueE1qG-VZVHATWFB1-26" value="" style="rounded=1;whiteSpace=wrap;html=1;" vertex="1" parent="eOEueE1qG-VZVHATWFB1-7">
          <mxGeometry width="140" height="140" as="geometry" />
        </mxCell>
        <mxCell id="eOEueE1qG-VZVHATWFB1-5" value="" style="shape=image;verticalLabelPosition=bottom;labelBackgroundColor=default;verticalAlign=top;aspect=fixed;imageAspect=0;image=https://pbs.twimg.com/profile_images/1481334520213381120/yEa5vUdw_400x400.png;" vertex="1" parent="eOEueE1qG-VZVHATWFB1-7">
          <mxGeometry x="13.566860465116278" y="24.206360294117648" width="102.75352941176472" height="102.75352941176472" as="geometry" />
        </mxCell>
        <mxCell id="eOEueE1qG-VZVHATWFB1-4" value="" style="shape=image;verticalLabelPosition=bottom;labelBackgroundColor=default;verticalAlign=top;aspect=fixed;imageAspect=0;image=https://cdn-icons-png.flaticon.com/512/10329/10329422.png;" vertex="1" parent="eOEueE1qG-VZVHATWFB1-7">
          <mxGeometry x="90" y="3.46" width="42.01" height="42.01" as="geometry" />
        </mxCell>
        <mxCell id="eOEueE1qG-VZVHATWFB1-23" value="&lt;b&gt;Origen&lt;/b&gt;" style="text;html=1;align=center;verticalAlign=middle;whiteSpace=wrap;rounded=0;" vertex="1" parent="eOEueE1qG-VZVHATWFB1-7">
          <mxGeometry x="34.94" y="5.069999999999993" width="60" height="30" as="geometry" />
        </mxCell>
        <mxCell id="eOEueE1qG-VZVHATWFB1-24" style="edgeStyle=orthogonalEdgeStyle;rounded=0;orthogonalLoop=1;jettySize=auto;html=1;exitX=1;exitY=0.5;exitDx=0;exitDy=0;fontStyle=4;" edge="1" parent="1" source="eOEueE1qG-VZVHATWFB1-26">
          <mxGeometry relative="1" as="geometry">
            <mxPoint x="166.31999999999994" y="427.18499999999995" as="sourcePoint" />
            <mxPoint x="280" y="270" as="targetPoint" />
          </mxGeometry>
        </mxCell>
        <mxCell id="eOEueE1qG-VZVHATWFB1-25" value="&lt;b&gt;Extracción&lt;/b&gt;" style="edgeLabel;html=1;align=center;verticalAlign=middle;resizable=0;points=[];" vertex="1" connectable="0" parent="eOEueE1qG-VZVHATWFB1-24">
          <mxGeometry x="-0.2727" relative="1" as="geometry">
            <mxPoint x="10" y="-10" as="offset" />
          </mxGeometry>
        </mxCell>
        <mxCell id="eOEueE1qG-VZVHATWFB1-31" value="" style="group" vertex="1" connectable="0" parent="1">
          <mxGeometry x="280" y="200" width="140" height="140" as="geometry" />
        </mxCell>
        <mxCell id="eOEueE1qG-VZVHATWFB1-28" value="" style="rounded=1;whiteSpace=wrap;html=1;" vertex="1" parent="eOEueE1qG-VZVHATWFB1-31">
          <mxGeometry width="140" height="140" as="geometry" />
        </mxCell>
        <mxCell id="eOEueE1qG-VZVHATWFB1-15" value="" style="shape=image;verticalLabelPosition=bottom;labelBackgroundColor=default;verticalAlign=top;aspect=fixed;imageAspect=0;image=https://www.svgrepo.com/show/376344/python.svg;" vertex="1" parent="eOEueE1qG-VZVHATWFB1-31">
          <mxGeometry x="20" y="25.319999999999993" width="100" height="100" as="geometry" />
        </mxCell>
        <mxCell id="eOEueE1qG-VZVHATWFB1-29" value="&lt;b&gt;ETL&lt;/b&gt;" style="text;html=1;align=center;verticalAlign=middle;whiteSpace=wrap;rounded=0;" vertex="1" parent="eOEueE1qG-VZVHATWFB1-31">
          <mxGeometry x="40" y="10" width="60" height="30" as="geometry" />
        </mxCell>
        <mxCell id="eOEueE1qG-VZVHATWFB1-50" style="edgeStyle=orthogonalEdgeStyle;rounded=0;orthogonalLoop=1;jettySize=auto;html=1;exitX=1;exitY=0.5;exitDx=0;exitDy=0;" edge="1" parent="1" source="eOEueE1qG-VZVHATWFB1-28" target="eOEueE1qG-VZVHATWFB1-35">
          <mxGeometry relative="1" as="geometry">
            <Array as="points">
              <mxPoint x="420" y="250" />
              <mxPoint x="532" y="250" />
              <mxPoint x="532" y="270" />
            </Array>
          </mxGeometry>
        </mxCell>
      </root>
    </mxGraphModel>
  </diagram>
</mxfile>
